<mxfile host="65bd71144e">
    <diagram id="nZ7SudFiqUvSSSgaW7J3" name="Storefront Backend">
        <mxGraphModel dx="1251" dy="1781" grid="1" gridSize="10" guides="1" tooltips="1" connect="1" arrows="1" fold="1" page="1" pageScale="1" pageWidth="850" pageHeight="1100" math="0" shadow="0">
            <root>
                <mxCell id="0"/>
                <mxCell id="1" parent="0"/>
                <mxCell id="utoI6_6kBgc8nuwsAvws-94" value="" style="rounded=1;whiteSpace=wrap;html=1;" parent="1" vertex="1">
                    <mxGeometry x="540" y="1010" width="460" height="290" as="geometry"/>
                </mxCell>
                <mxCell id="utoI6_6kBgc8nuwsAvws-71" value="" style="rounded=1;whiteSpace=wrap;html=1;" parent="1" vertex="1">
                    <mxGeometry x="540" y="790" width="470" height="160" as="geometry"/>
                </mxCell>
                <mxCell id="utoI6_6kBgc8nuwsAvws-62" value="" style="rounded=1;whiteSpace=wrap;html=1;" parent="1" vertex="1">
                    <mxGeometry x="545" y="590" width="470" height="160" as="geometry"/>
                </mxCell>
                <mxCell id="utoI6_6kBgc8nuwsAvws-58" value="" style="rounded=1;whiteSpace=wrap;html=1;" parent="1" vertex="1">
                    <mxGeometry x="545" y="-50" width="480" height="90" as="geometry"/>
                </mxCell>
                <mxCell id="utoI6_6kBgc8nuwsAvws-57" value="" style="rounded=1;whiteSpace=wrap;html=1;" parent="1" vertex="1">
                    <mxGeometry x="545" y="-180" width="480" height="120" as="geometry"/>
                </mxCell>
                <mxCell id="utoI6_6kBgc8nuwsAvws-55" value="" style="rounded=1;whiteSpace=wrap;html=1;" parent="1" vertex="1">
                    <mxGeometry x="540" y="-390" width="490" height="200" as="geometry"/>
                </mxCell>
                <mxCell id="utoI6_6kBgc8nuwsAvws-54" value="" style="rounded=1;whiteSpace=wrap;html=1;" parent="1" vertex="1">
                    <mxGeometry x="545" y="290" width="485" height="120" as="geometry"/>
                </mxCell>
                <mxCell id="utoI6_6kBgc8nuwsAvws-53" value="" style="rounded=1;whiteSpace=wrap;html=1;" parent="1" vertex="1">
                    <mxGeometry x="540" y="70" width="490" height="210" as="geometry"/>
                </mxCell>
                <mxCell id="utoI6_6kBgc8nuwsAvws-2" style="edgeStyle=orthogonalEdgeStyle;rounded=0;orthogonalLoop=1;jettySize=auto;html=1;entryX=0;entryY=0.5;entryDx=0;entryDy=0;entryPerimeter=0;" parent="1" source="utoI6_6kBgc8nuwsAvws-1" target="utoI6_6kBgc8nuwsAvws-3" edge="1">
                    <mxGeometry relative="1" as="geometry">
                        <mxPoint x="320" y="250" as="targetPoint"/>
                    </mxGeometry>
                </mxCell>
                <mxCell id="utoI6_6kBgc8nuwsAvws-6" style="edgeStyle=orthogonalEdgeStyle;rounded=0;orthogonalLoop=1;jettySize=auto;html=1;entryX=0;entryY=0.5;entryDx=0;entryDy=0;entryPerimeter=0;" parent="1" source="utoI6_6kBgc8nuwsAvws-1" target="utoI6_6kBgc8nuwsAvws-4" edge="1">
                    <mxGeometry relative="1" as="geometry">
                        <Array as="points">
                            <mxPoint x="360" y="250"/>
                        </Array>
                    </mxGeometry>
                </mxCell>
                <mxCell id="utoI6_6kBgc8nuwsAvws-7" style="edgeStyle=orthogonalEdgeStyle;rounded=0;orthogonalLoop=1;jettySize=auto;html=1;entryX=0;entryY=0.5;entryDx=0;entryDy=0;entryPerimeter=0;" parent="1" source="utoI6_6kBgc8nuwsAvws-1" target="utoI6_6kBgc8nuwsAvws-5" edge="1">
                    <mxGeometry relative="1" as="geometry"/>
                </mxCell>
                <mxCell id="utoI6_6kBgc8nuwsAvws-75" style="edgeStyle=orthogonalEdgeStyle;rounded=0;orthogonalLoop=1;jettySize=auto;html=1;entryX=0;entryY=0.5;entryDx=0;entryDy=0;entryPerimeter=0;" parent="1" source="utoI6_6kBgc8nuwsAvws-1" target="utoI6_6kBgc8nuwsAvws-74" edge="1">
                    <mxGeometry relative="1" as="geometry"/>
                </mxCell>
                <mxCell id="utoI6_6kBgc8nuwsAvws-1" value="Main Route" style="strokeWidth=2;html=1;shape=mxgraph.flowchart.terminator;whiteSpace=wrap;" parent="1" vertex="1">
                    <mxGeometry x="100" y="220" width="100" height="60" as="geometry"/>
                </mxCell>
                <mxCell id="utoI6_6kBgc8nuwsAvws-10" value="" style="edgeStyle=orthogonalEdgeStyle;rounded=0;orthogonalLoop=1;jettySize=auto;html=1;" parent="1" source="utoI6_6kBgc8nuwsAvws-3" target="utoI6_6kBgc8nuwsAvws-9" edge="1">
                    <mxGeometry relative="1" as="geometry">
                        <Array as="points">
                            <mxPoint x="510" y="-40"/>
                            <mxPoint x="510" y="-120"/>
                        </Array>
                    </mxGeometry>
                </mxCell>
                <mxCell id="utoI6_6kBgc8nuwsAvws-12" value="" style="edgeStyle=orthogonalEdgeStyle;rounded=0;orthogonalLoop=1;jettySize=auto;html=1;" parent="1" source="utoI6_6kBgc8nuwsAvws-3" target="utoI6_6kBgc8nuwsAvws-11" edge="1">
                    <mxGeometry relative="1" as="geometry"/>
                </mxCell>
                <mxCell id="utoI6_6kBgc8nuwsAvws-16" value="" style="edgeStyle=orthogonalEdgeStyle;rounded=0;orthogonalLoop=1;jettySize=auto;html=1;" parent="1" source="utoI6_6kBgc8nuwsAvws-3" target="utoI6_6kBgc8nuwsAvws-15" edge="1">
                    <mxGeometry relative="1" as="geometry">
                        <Array as="points">
                            <mxPoint x="510" y="-40"/>
                            <mxPoint x="510" y="-240"/>
                        </Array>
                    </mxGeometry>
                </mxCell>
                <mxCell id="utoI6_6kBgc8nuwsAvws-3" value="User" style="strokeWidth=2;html=1;shape=mxgraph.flowchart.stored_data;whiteSpace=wrap;" parent="1" vertex="1">
                    <mxGeometry x="360" y="-70" width="100" height="60" as="geometry"/>
                </mxCell>
                <mxCell id="utoI6_6kBgc8nuwsAvws-33" value="" style="edgeStyle=orthogonalEdgeStyle;rounded=0;orthogonalLoop=1;jettySize=auto;html=1;entryX=0;entryY=0.5;entryDx=0;entryDy=0;entryPerimeter=0;" parent="1" source="utoI6_6kBgc8nuwsAvws-4" target="utoI6_6kBgc8nuwsAvws-32" edge="1">
                    <mxGeometry relative="1" as="geometry">
                        <mxPoint x="570" y="150" as="targetPoint"/>
                        <Array as="points">
                            <mxPoint x="510" y="250"/>
                            <mxPoint x="510" y="150"/>
                        </Array>
                    </mxGeometry>
                </mxCell>
                <mxCell id="utoI6_6kBgc8nuwsAvws-35" value="" style="edgeStyle=orthogonalEdgeStyle;rounded=0;orthogonalLoop=1;jettySize=auto;html=1;" parent="1" source="utoI6_6kBgc8nuwsAvws-4" target="utoI6_6kBgc8nuwsAvws-34" edge="1">
                    <mxGeometry relative="1" as="geometry">
                        <Array as="points">
                            <mxPoint x="510" y="250"/>
                            <mxPoint x="510" y="350"/>
                        </Array>
                    </mxGeometry>
                </mxCell>
                <mxCell id="utoI6_6kBgc8nuwsAvws-4" value="Order" style="strokeWidth=2;html=1;shape=mxgraph.flowchart.stored_data;whiteSpace=wrap;" parent="1" vertex="1">
                    <mxGeometry x="360" y="220" width="100" height="60" as="geometry"/>
                </mxCell>
                <mxCell id="utoI6_6kBgc8nuwsAvws-14" value="" style="edgeStyle=orthogonalEdgeStyle;rounded=0;orthogonalLoop=1;jettySize=auto;html=1;" parent="1" source="utoI6_6kBgc8nuwsAvws-5" target="utoI6_6kBgc8nuwsAvws-13" edge="1">
                    <mxGeometry relative="1" as="geometry">
                        <Array as="points">
                            <mxPoint x="510" y="770"/>
                            <mxPoint x="510" y="670"/>
                        </Array>
                    </mxGeometry>
                </mxCell>
                <mxCell id="utoI6_6kBgc8nuwsAvws-61" value="" style="edgeStyle=orthogonalEdgeStyle;rounded=0;orthogonalLoop=1;jettySize=auto;html=1;" parent="1" source="utoI6_6kBgc8nuwsAvws-5" target="utoI6_6kBgc8nuwsAvws-60" edge="1">
                    <mxGeometry relative="1" as="geometry">
                        <Array as="points">
                            <mxPoint x="510" y="770"/>
                            <mxPoint x="510" y="850"/>
                        </Array>
                    </mxGeometry>
                </mxCell>
                <mxCell id="utoI6_6kBgc8nuwsAvws-5" value="products" style="strokeWidth=2;html=1;shape=mxgraph.flowchart.stored_data;whiteSpace=wrap;" parent="1" vertex="1">
                    <mxGeometry x="360" y="740" width="100" height="60" as="geometry"/>
                </mxCell>
                <mxCell id="utoI6_6kBgc8nuwsAvws-25" style="edgeStyle=orthogonalEdgeStyle;rounded=0;orthogonalLoop=1;jettySize=auto;html=1;entryX=0;entryY=0.5;entryDx=0;entryDy=0;" parent="1" source="utoI6_6kBgc8nuwsAvws-9" target="utoI6_6kBgc8nuwsAvws-23" edge="1">
                    <mxGeometry relative="1" as="geometry"/>
                </mxCell>
                <mxCell id="utoI6_6kBgc8nuwsAvws-9" value="login" style="strokeWidth=2;html=1;shape=mxgraph.flowchart.stored_data;whiteSpace=wrap;" parent="1" vertex="1">
                    <mxGeometry x="565" y="-150" width="100" height="60" as="geometry"/>
                </mxCell>
                <mxCell id="utoI6_6kBgc8nuwsAvws-27" style="edgeStyle=orthogonalEdgeStyle;rounded=0;orthogonalLoop=1;jettySize=auto;html=1;entryX=0;entryY=0.5;entryDx=0;entryDy=0;" parent="1" source="utoI6_6kBgc8nuwsAvws-11" target="utoI6_6kBgc8nuwsAvws-26" edge="1">
                    <mxGeometry relative="1" as="geometry"/>
                </mxCell>
                <mxCell id="utoI6_6kBgc8nuwsAvws-11" value="signup" style="strokeWidth=2;html=1;shape=mxgraph.flowchart.stored_data;whiteSpace=wrap;" parent="1" vertex="1">
                    <mxGeometry x="560" y="-30" width="100" height="60" as="geometry"/>
                </mxCell>
                <mxCell id="utoI6_6kBgc8nuwsAvws-72" style="edgeStyle=orthogonalEdgeStyle;rounded=0;orthogonalLoop=1;jettySize=auto;html=1;entryX=0;entryY=0.5;entryDx=0;entryDy=0;" parent="1" source="utoI6_6kBgc8nuwsAvws-13" target="utoI6_6kBgc8nuwsAvws-67" edge="1">
                    <mxGeometry relative="1" as="geometry"/>
                </mxCell>
                <mxCell id="utoI6_6kBgc8nuwsAvws-73" style="edgeStyle=orthogonalEdgeStyle;rounded=0;orthogonalLoop=1;jettySize=auto;html=1;" parent="1" source="utoI6_6kBgc8nuwsAvws-13" target="utoI6_6kBgc8nuwsAvws-69" edge="1">
                    <mxGeometry relative="1" as="geometry"/>
                </mxCell>
                <mxCell id="utoI6_6kBgc8nuwsAvws-13" value="/&lt;br&gt;/?category=" style="strokeWidth=2;html=1;shape=mxgraph.flowchart.stored_data;whiteSpace=wrap;" parent="1" vertex="1">
                    <mxGeometry x="560" y="640" width="100" height="60" as="geometry"/>
                </mxCell>
                <mxCell id="utoI6_6kBgc8nuwsAvws-17" style="edgeStyle=orthogonalEdgeStyle;rounded=0;orthogonalLoop=1;jettySize=auto;html=1;" parent="1" source="utoI6_6kBgc8nuwsAvws-15" target="utoI6_6kBgc8nuwsAvws-18" edge="1">
                    <mxGeometry relative="1" as="geometry">
                        <mxPoint x="770" y="-340" as="targetPoint"/>
                        <Array as="points">
                            <mxPoint x="720" y="-240"/>
                            <mxPoint x="720" y="-350"/>
                        </Array>
                    </mxGeometry>
                </mxCell>
                <mxCell id="utoI6_6kBgc8nuwsAvws-20" style="edgeStyle=orthogonalEdgeStyle;rounded=0;orthogonalLoop=1;jettySize=auto;html=1;entryX=0;entryY=0.5;entryDx=0;entryDy=0;" parent="1" source="utoI6_6kBgc8nuwsAvws-15" target="utoI6_6kBgc8nuwsAvws-24" edge="1">
                    <mxGeometry relative="1" as="geometry">
                        <mxPoint x="800" y="-240" as="targetPoint"/>
                    </mxGeometry>
                </mxCell>
                <mxCell id="utoI6_6kBgc8nuwsAvws-15" value="/" style="strokeWidth=2;html=1;shape=mxgraph.flowchart.stored_data;whiteSpace=wrap;" parent="1" vertex="1">
                    <mxGeometry x="560" y="-270" width="100" height="60" as="geometry"/>
                </mxCell>
                <mxCell id="utoI6_6kBgc8nuwsAvws-18" value="Get" style="swimlane;horizontal=0;fillColor=#0050ef;fontColor=#ffffff;strokeColor=#001DBC;rounded=1;" parent="1" vertex="1">
                    <mxGeometry x="800" y="-370" width="200" height="50" as="geometry"/>
                </mxCell>
                <mxCell id="utoI6_6kBgc8nuwsAvws-29" value="Get user details" style="text;html=1;align=center;verticalAlign=middle;resizable=0;points=[];autosize=1;strokeColor=none;fillColor=none;" parent="utoI6_6kBgc8nuwsAvws-18" vertex="1">
                    <mxGeometry x="60" y="15" width="100" height="20" as="geometry"/>
                </mxCell>
                <mxCell id="utoI6_6kBgc8nuwsAvws-23" value="Post" style="swimlane;horizontal=0;fillColor=#60a917;fontColor=#ffffff;strokeColor=#2D7600;startSize=23;rounded=1;" parent="1" vertex="1">
                    <mxGeometry x="805" y="-145" width="200" height="50" as="geometry"/>
                </mxCell>
                <mxCell id="utoI6_6kBgc8nuwsAvws-30" value="Login user" style="text;html=1;align=center;verticalAlign=middle;resizable=0;points=[];autosize=1;strokeColor=none;fillColor=none;" parent="utoI6_6kBgc8nuwsAvws-23" vertex="1">
                    <mxGeometry x="75" y="15" width="70" height="20" as="geometry"/>
                </mxCell>
                <mxCell id="utoI6_6kBgc8nuwsAvws-24" value="Put" style="swimlane;horizontal=0;fillColor=#fa6800;fontColor=#000000;strokeColor=#C73500;startSize=23;rounded=1;" parent="1" vertex="1">
                    <mxGeometry x="800" y="-265" width="200" height="50" as="geometry"/>
                </mxCell>
                <mxCell id="utoI6_6kBgc8nuwsAvws-28" value="Update User Details" style="text;html=1;align=center;verticalAlign=middle;resizable=0;points=[];autosize=1;strokeColor=none;fillColor=none;" parent="utoI6_6kBgc8nuwsAvws-24" vertex="1">
                    <mxGeometry x="50" y="15" width="120" height="20" as="geometry"/>
                </mxCell>
                <mxCell id="utoI6_6kBgc8nuwsAvws-26" value="Post" style="swimlane;horizontal=0;fillColor=#60a917;fontColor=#ffffff;strokeColor=#2D7600;startSize=23;rounded=1;" parent="1" vertex="1">
                    <mxGeometry x="805" y="-25" width="200" height="50" as="geometry"/>
                </mxCell>
                <mxCell id="utoI6_6kBgc8nuwsAvws-31" value="Create new user" style="text;html=1;align=center;verticalAlign=middle;resizable=0;points=[];autosize=1;strokeColor=none;fillColor=none;" parent="utoI6_6kBgc8nuwsAvws-26" vertex="1">
                    <mxGeometry x="60" y="15" width="100" height="20" as="geometry"/>
                </mxCell>
                <mxCell id="utoI6_6kBgc8nuwsAvws-38" style="edgeStyle=orthogonalEdgeStyle;rounded=0;orthogonalLoop=1;jettySize=auto;html=1;entryX=0;entryY=0.5;entryDx=0;entryDy=0;" parent="1" source="utoI6_6kBgc8nuwsAvws-32" target="utoI6_6kBgc8nuwsAvws-36" edge="1">
                    <mxGeometry relative="1" as="geometry"/>
                </mxCell>
                <mxCell id="utoI6_6kBgc8nuwsAvws-42" style="edgeStyle=orthogonalEdgeStyle;rounded=0;orthogonalLoop=1;jettySize=auto;html=1;entryX=0;entryY=0.5;entryDx=0;entryDy=0;" parent="1" source="utoI6_6kBgc8nuwsAvws-32" target="utoI6_6kBgc8nuwsAvws-40" edge="1">
                    <mxGeometry relative="1" as="geometry"/>
                </mxCell>
                <mxCell id="7CZw5rfsKFWekNT_FiO_-4" style="edgeStyle=orthogonalEdgeStyle;rounded=0;orthogonalLoop=1;jettySize=auto;html=1;entryX=0;entryY=0.5;entryDx=0;entryDy=0;" parent="1" source="utoI6_6kBgc8nuwsAvws-32" target="7CZw5rfsKFWekNT_FiO_-2" edge="1">
                    <mxGeometry relative="1" as="geometry"/>
                </mxCell>
                <mxCell id="utoI6_6kBgc8nuwsAvws-32" value="/" style="strokeWidth=2;html=1;shape=mxgraph.flowchart.stored_data;whiteSpace=wrap;" parent="1" vertex="1">
                    <mxGeometry x="560" y="120" width="100" height="60" as="geometry"/>
                </mxCell>
                <mxCell id="utoI6_6kBgc8nuwsAvws-43" style="edgeStyle=orthogonalEdgeStyle;rounded=0;orthogonalLoop=1;jettySize=auto;html=1;entryX=0;entryY=0.5;entryDx=0;entryDy=0;" parent="1" source="utoI6_6kBgc8nuwsAvws-34" target="utoI6_6kBgc8nuwsAvws-44" edge="1">
                    <mxGeometry relative="1" as="geometry">
                        <mxPoint x="840" y="350" as="targetPoint"/>
                    </mxGeometry>
                </mxCell>
                <mxCell id="utoI6_6kBgc8nuwsAvws-34" value="/:id" style="strokeWidth=2;html=1;shape=mxgraph.flowchart.stored_data;whiteSpace=wrap;" parent="1" vertex="1">
                    <mxGeometry x="560" y="320" width="100" height="60" as="geometry"/>
                </mxCell>
                <mxCell id="utoI6_6kBgc8nuwsAvws-36" value="Get" style="swimlane;horizontal=0;fillColor=#0050ef;fontColor=#ffffff;strokeColor=#001DBC;rounded=1;" parent="1" vertex="1">
                    <mxGeometry x="800" y="80" width="220" height="50" as="geometry"/>
                </mxCell>
                <mxCell id="utoI6_6kBgc8nuwsAvws-37" value="Get user order list" style="text;html=1;align=center;verticalAlign=middle;resizable=0;points=[];autosize=1;strokeColor=none;fillColor=none;" parent="utoI6_6kBgc8nuwsAvws-36" vertex="1">
                    <mxGeometry x="65" y="15" width="110" height="20" as="geometry"/>
                </mxCell>
                <mxCell id="utoI6_6kBgc8nuwsAvws-40" value="Post" style="swimlane;horizontal=0;fillColor=#60a917;fontColor=#ffffff;strokeColor=#2D7600;startSize=23;rounded=1;" parent="1" vertex="1">
                    <mxGeometry x="800" y="140" width="220" height="50" as="geometry"/>
                </mxCell>
                <mxCell id="utoI6_6kBgc8nuwsAvws-41" value="Create New Pending Order" style="text;html=1;align=center;verticalAlign=middle;resizable=0;points=[];autosize=1;strokeColor=none;fillColor=none;" parent="utoI6_6kBgc8nuwsAvws-40" vertex="1">
                    <mxGeometry x="45" y="15" width="160" height="20" as="geometry"/>
                </mxCell>
                <mxCell id="utoI6_6kBgc8nuwsAvws-44" value="Get" style="swimlane;horizontal=0;fillColor=#0050ef;fontColor=#ffffff;strokeColor=#0000FF;rounded=1;" parent="1" vertex="1">
                    <mxGeometry x="800" y="325" width="200" height="50" as="geometry"/>
                </mxCell>
                <mxCell id="utoI6_6kBgc8nuwsAvws-45" value="Get&amp;nbsp; product list" style="text;html=1;align=center;verticalAlign=middle;resizable=0;points=[];autosize=1;strokeColor=none;fillColor=none;" parent="utoI6_6kBgc8nuwsAvws-44" vertex="1">
                    <mxGeometry x="60" y="15" width="100" height="20" as="geometry"/>
                </mxCell>
                <mxCell id="7CZw5rfsKFWekNT_FiO_-1" style="edgeStyle=orthogonalEdgeStyle;rounded=0;orthogonalLoop=1;jettySize=auto;html=1;entryX=0;entryY=0.5;entryDx=0;entryDy=0;" parent="1" source="utoI6_6kBgc8nuwsAvws-60" target="utoI6_6kBgc8nuwsAvws-65" edge="1">
                    <mxGeometry relative="1" as="geometry"/>
                </mxCell>
                <mxCell id="7CZw5rfsKFWekNT_FiO_-7" style="edgeStyle=orthogonalEdgeStyle;rounded=0;orthogonalLoop=1;jettySize=auto;html=1;entryX=0;entryY=0.5;entryDx=0;entryDy=0;" parent="1" source="utoI6_6kBgc8nuwsAvws-60" target="7CZw5rfsKFWekNT_FiO_-5" edge="1">
                    <mxGeometry relative="1" as="geometry"/>
                </mxCell>
                <mxCell id="utoI6_6kBgc8nuwsAvws-60" value="/:id" style="strokeWidth=2;html=1;shape=mxgraph.flowchart.stored_data;whiteSpace=wrap;" parent="1" vertex="1">
                    <mxGeometry x="560" y="820" width="100" height="60" as="geometry"/>
                </mxCell>
                <mxCell id="utoI6_6kBgc8nuwsAvws-65" value="Delete" style="swimlane;horizontal=0;fillColor=#a20025;fontColor=#ffffff;strokeColor=#6F0000;startSize=23;rounded=1;" parent="1" vertex="1">
                    <mxGeometry x="800" y="890" width="200" height="50" as="geometry"/>
                </mxCell>
                <mxCell id="utoI6_6kBgc8nuwsAvws-66" value="Delete product listing" style="text;html=1;align=center;verticalAlign=middle;resizable=0;points=[];autosize=1;strokeColor=none;fillColor=none;" parent="utoI6_6kBgc8nuwsAvws-65" vertex="1">
                    <mxGeometry x="45" y="15" width="130" height="20" as="geometry"/>
                </mxCell>
                <mxCell id="utoI6_6kBgc8nuwsAvws-67" value="Get" style="swimlane;horizontal=0;fillColor=#0050ef;fontColor=#ffffff;strokeColor=#0000FF;rounded=1;" parent="1" vertex="1">
                    <mxGeometry x="800" y="610" width="200" height="50" as="geometry"/>
                </mxCell>
                <mxCell id="utoI6_6kBgc8nuwsAvws-68" value="Get Product List" style="text;html=1;align=center;verticalAlign=middle;resizable=0;points=[];autosize=1;strokeColor=none;fillColor=none;" parent="utoI6_6kBgc8nuwsAvws-67" vertex="1">
                    <mxGeometry x="60" y="15" width="100" height="20" as="geometry"/>
                </mxCell>
                <mxCell id="utoI6_6kBgc8nuwsAvws-69" value="Post" style="swimlane;horizontal=0;fillColor=#60a917;fontColor=#ffffff;strokeColor=#2D7600;startSize=23;rounded=1;" parent="1" vertex="1">
                    <mxGeometry x="800" y="680" width="200" height="50" as="geometry"/>
                </mxCell>
                <mxCell id="utoI6_6kBgc8nuwsAvws-70" value="Create new product" style="text;html=1;align=center;verticalAlign=middle;resizable=0;points=[];autosize=1;strokeColor=none;fillColor=none;" parent="utoI6_6kBgc8nuwsAvws-69" vertex="1">
                    <mxGeometry x="50" y="15" width="120" height="20" as="geometry"/>
                </mxCell>
                <mxCell id="utoI6_6kBgc8nuwsAvws-81" style="edgeStyle=orthogonalEdgeStyle;rounded=0;orthogonalLoop=1;jettySize=auto;html=1;entryX=0;entryY=0.5;entryDx=0;entryDy=0;entryPerimeter=0;" parent="1" source="utoI6_6kBgc8nuwsAvws-74" target="utoI6_6kBgc8nuwsAvws-76" edge="1">
                    <mxGeometry relative="1" as="geometry"/>
                </mxCell>
                <mxCell id="utoI6_6kBgc8nuwsAvws-74" value="cart" style="strokeWidth=2;html=1;shape=mxgraph.flowchart.stored_data;whiteSpace=wrap;" parent="1" vertex="1">
                    <mxGeometry x="360" y="1110" width="100" height="60" as="geometry"/>
                </mxCell>
                <mxCell id="utoI6_6kBgc8nuwsAvws-90" style="edgeStyle=orthogonalEdgeStyle;rounded=0;orthogonalLoop=1;jettySize=auto;html=1;entryX=0;entryY=0.5;entryDx=0;entryDy=0;" parent="1" source="utoI6_6kBgc8nuwsAvws-76" target="utoI6_6kBgc8nuwsAvws-82" edge="1">
                    <mxGeometry relative="1" as="geometry"/>
                </mxCell>
                <mxCell id="utoI6_6kBgc8nuwsAvws-91" style="edgeStyle=orthogonalEdgeStyle;rounded=0;orthogonalLoop=1;jettySize=auto;html=1;entryX=0;entryY=0.5;entryDx=0;entryDy=0;" parent="1" source="utoI6_6kBgc8nuwsAvws-76" target="utoI6_6kBgc8nuwsAvws-88" edge="1">
                    <mxGeometry relative="1" as="geometry"/>
                </mxCell>
                <mxCell id="utoI6_6kBgc8nuwsAvws-92" style="edgeStyle=orthogonalEdgeStyle;rounded=0;orthogonalLoop=1;jettySize=auto;html=1;entryX=0;entryY=0.5;entryDx=0;entryDy=0;" parent="1" source="utoI6_6kBgc8nuwsAvws-76" target="utoI6_6kBgc8nuwsAvws-86" edge="1">
                    <mxGeometry relative="1" as="geometry"/>
                </mxCell>
                <mxCell id="utoI6_6kBgc8nuwsAvws-93" style="edgeStyle=orthogonalEdgeStyle;rounded=0;orthogonalLoop=1;jettySize=auto;html=1;entryX=0;entryY=0.5;entryDx=0;entryDy=0;" parent="1" source="utoI6_6kBgc8nuwsAvws-76" target="utoI6_6kBgc8nuwsAvws-84" edge="1">
                    <mxGeometry relative="1" as="geometry"/>
                </mxCell>
                <mxCell id="utoI6_6kBgc8nuwsAvws-76" value="/" style="strokeWidth=2;html=1;shape=mxgraph.flowchart.stored_data;whiteSpace=wrap;" parent="1" vertex="1">
                    <mxGeometry x="565" y="1110" width="100" height="60" as="geometry"/>
                </mxCell>
                <mxCell id="utoI6_6kBgc8nuwsAvws-82" value="Get" style="swimlane;horizontal=0;fillColor=#0050ef;fontColor=#ffffff;strokeColor=#0000FF;rounded=1;" parent="1" vertex="1">
                    <mxGeometry x="760" y="1030" width="200" height="50" as="geometry"/>
                </mxCell>
                <mxCell id="utoI6_6kBgc8nuwsAvws-83" value="Get Items In Cart" style="text;html=1;align=center;verticalAlign=middle;resizable=0;points=[];autosize=1;strokeColor=none;fillColor=none;" parent="utoI6_6kBgc8nuwsAvws-82" vertex="1">
                    <mxGeometry x="55" y="15" width="110" height="20" as="geometry"/>
                </mxCell>
                <mxCell id="utoI6_6kBgc8nuwsAvws-84" value="Delete" style="swimlane;horizontal=0;fillColor=#a20025;fontColor=#ffffff;strokeColor=#6F0000;startSize=23;rounded=1;" parent="1" vertex="1">
                    <mxGeometry x="760" y="1230" width="200" height="50" as="geometry"/>
                </mxCell>
                <mxCell id="utoI6_6kBgc8nuwsAvws-85" value="Remove Item From Cart" style="text;html=1;align=center;verticalAlign=middle;resizable=0;points=[];autosize=1;strokeColor=none;fillColor=none;" parent="utoI6_6kBgc8nuwsAvws-84" vertex="1">
                    <mxGeometry x="40" y="15" width="140" height="20" as="geometry"/>
                </mxCell>
                <mxCell id="utoI6_6kBgc8nuwsAvws-86" value="Post" style="swimlane;horizontal=0;fillColor=#60a917;fontColor=#ffffff;strokeColor=#2D7600;startSize=23;rounded=1;" parent="1" vertex="1">
                    <mxGeometry x="760" y="1160" width="200" height="50" as="geometry"/>
                </mxCell>
                <mxCell id="utoI6_6kBgc8nuwsAvws-87" value="Add Item too cart" style="text;html=1;align=center;verticalAlign=middle;resizable=0;points=[];autosize=1;strokeColor=none;fillColor=none;" parent="utoI6_6kBgc8nuwsAvws-86" vertex="1">
                    <mxGeometry x="55" y="15" width="110" height="20" as="geometry"/>
                </mxCell>
                <mxCell id="utoI6_6kBgc8nuwsAvws-88" value="Put" style="swimlane;horizontal=0;fillColor=#fa6800;fontColor=#000000;strokeColor=#C73500;startSize=23;rounded=1;" parent="1" vertex="1">
                    <mxGeometry x="760" y="1090" width="200" height="50" as="geometry"/>
                </mxCell>
                <mxCell id="utoI6_6kBgc8nuwsAvws-89" value="Edit Cart Item amount" style="text;html=1;align=center;verticalAlign=middle;resizable=0;points=[];autosize=1;strokeColor=none;fillColor=none;rounded=1;" parent="utoI6_6kBgc8nuwsAvws-88" vertex="1">
                    <mxGeometry x="45" y="15" width="130" height="20" as="geometry"/>
                </mxCell>
                <mxCell id="7CZw5rfsKFWekNT_FiO_-2" value="Put" style="swimlane;horizontal=0;fillColor=#fa6800;fontColor=#000000;strokeColor=#C73500;startSize=23;rounded=1;" parent="1" vertex="1">
                    <mxGeometry x="800" y="200" width="220" height="50" as="geometry"/>
                </mxCell>
                <mxCell id="7CZw5rfsKFWekNT_FiO_-3" value="Update order status to Active" style="text;html=1;align=center;verticalAlign=middle;resizable=0;points=[];autosize=1;strokeColor=none;fillColor=none;" parent="7CZw5rfsKFWekNT_FiO_-2" vertex="1">
                    <mxGeometry x="25" y="15" width="170" height="20" as="geometry"/>
                </mxCell>
                <mxCell id="7CZw5rfsKFWekNT_FiO_-5" value="Get" style="swimlane;horizontal=0;fillColor=#0050ef;fontColor=#ffffff;strokeColor=#0000FF;rounded=1;" parent="1" vertex="1">
                    <mxGeometry x="800" y="800" width="200" height="50" as="geometry"/>
                </mxCell>
                <mxCell id="7CZw5rfsKFWekNT_FiO_-6" value="Get product details" style="text;html=1;align=center;verticalAlign=middle;resizable=0;points=[];autosize=1;strokeColor=none;fillColor=none;" parent="7CZw5rfsKFWekNT_FiO_-5" vertex="1">
                    <mxGeometry x="50" y="15" width="120" height="20" as="geometry"/>
                </mxCell>
            </root>
        </mxGraphModel>
    </diagram>
</mxfile>